<?xml version="1.0" encoding="UTF-8" standalone="no"?>
<!-- Created with Inkscape (http://www.inkscape.org/) -->

<svg
   width="138.6853mm"
   height="27.756222mm"
   viewBox="0 0 138.68531 27.756222"
   version="1.1"
   id="svg5"
   inkscape:version="1.1.1 (3bf5ae0d25, 2021-09-20)"
   sodipodi:docname="logomono.svg"
   xmlns:inkscape="http://www.inkscape.org/namespaces/inkscape"
   xmlns:sodipodi="http://sodipodi.sourceforge.net/DTD/sodipodi-0.dtd"
   xmlns="http://www.w3.org/2000/svg"
   xmlns:svg="http://www.w3.org/2000/svg">
  <sodipodi:namedview
     id="namedview7"
     pagecolor="#ffffff"
     bordercolor="#666666"
     borderopacity="1.0"
     inkscape:pageshadow="2"
     inkscape:pageopacity="0.0"
     inkscape:pagecheckerboard="0"
     inkscape:document-units="mm"
     showgrid="false"
     objecttolerance="20"
     inkscape:snap-path-clip="false"
     inkscape:snap-path-mask="false"
     inkscape:snap-perpendicular="false"
     inkscape:snap-tangential="false"
     inkscape:zoom="0.7705878"
     inkscape:cx="206.33599"
     inkscape:cy="55.801558"
     inkscape:window-width="1920"
     inkscape:window-height="1011"
     inkscape:window-x="0"
     inkscape:window-y="32"
     inkscape:window-maximized="1"
     inkscape:current-layer="layer1"
     lock-margins="true"
     fit-margin-top="0"
     fit-margin-left="0"
     fit-margin-right="0"
     fit-margin-bottom="0" />
  <defs
     id="defs2" />
  <g
     inkscape:label="Layer 1"
     inkscape:groupmode="layer"
     id="layer1"
     transform="translate(0.42776599,-250.61294)">
    <g
       aria-label="/"
       transform="matrix(0.99318006,0,0,1.0068668,-42.467407,-38.104184)"
       id="text980-43-8-6-5-94"
       style="font-size:9.61626px;line-height:1.25;font-family:'CMU Classical Serif';-inkscape-font-specification:'CMU Classical Serif';fill:#ca3c32;fill-opacity:1;stroke:#ca3c32;stroke-width:0.24;stroke-miterlimit:4;stroke-dasharray:none;stroke-opacity:1" />
    <g
       id="g45833">
      <circle
         style="fill:#4d64ae;fill-opacity:1;stroke-width:1.281;stroke-linecap:round;stroke-linejoin:round;stroke-dashoffset:19.5402;paint-order:markers stroke fill"
         id="path30373"
         cx="-99.741806"
         cy="270.44504"
         r="5.120532"
         transform="rotate(-45)" />
      <path
         id="path30373-6"
         style="fill:#ffffff;stroke:#ffffff;stroke-width:0.05;stroke-linecap:round;stroke-linejoin:round;stroke-miterlimit:4;stroke-dasharray:none;stroke-dashoffset:19.5402;stroke-opacity:1;paint-order:markers stroke fill"
         d="m 116.54346,258.78246 a 5.1205321,5.1205321 0 0 0 -0.8514,1.94909 l 9.02301,4.20986 a 5.1205321,5.1205321 0 0 0 0.94786,-1.90451 z" />
      <g
         id="g41050"
         transform="translate(-0.02346747,0.34470435)">
        <circle
           style="fill:#9259a3;fill-opacity:1;stroke-width:3.05212;stroke-linecap:round;stroke-linejoin:round;stroke-miterlimit:4;stroke-dasharray:none;stroke-dashoffset:19.5402;paint-order:markers stroke fill"
           id="path54997-7-2-2-6-2-8-6-6-2"
           cx="129.49304"
           cy="274.34543"
           r="3.5445001" />
        <circle
           style="fill:#ca3c32;fill-opacity:1;stroke-width:3.05212;stroke-linecap:round;stroke-linejoin:round;stroke-miterlimit:4;stroke-dasharray:none;stroke-dashoffset:19.5402;paint-order:markers stroke fill"
           id="path54997-7-5-8-8-89-2-4-1-1-9"
           cx="111.96473"
           cy="274.34543"
           r="3.5445001" />
        <circle
           style="fill:#399746;fill-opacity:1;stroke-width:3.05212;stroke-linecap:round;stroke-linejoin:round;stroke-miterlimit:4;stroke-dasharray:none;stroke-dashoffset:19.5402;paint-order:markers stroke fill"
           id="path54997-7-5-8-8-8-0-3-3-0-8-1"
           cx="120.72888"
           cy="274.34543"
           r="3.5445001" />
      </g>
      <path
         d="m 4.5701073,267.88027 q -1.4586068,0 -2.5954621,-0.57915 -1.12613024,-0.58988 -1.76963324,-1.68383 -0.63277795,-1.09396 -0.63277795,-2.58474 H 2.0604456 q 0,0.79365 0.3217515,1.40498 0.3324766,0.61133 0.9009042,0.95453 0.5791527,0.3432 1.297731,0.3432 1.2119307,0 1.8125335,-0.8151 0.6113278,-0.82583 0.6113278,-2.20936 v -8.42989 H 0.92359031 v -2.16646 H 9.4929052 v 10.62852 q 0,2.49894 -1.2762809,3.81812 -1.276281,1.31918 -3.646517,1.31918 z"
         id="path30279"
         style="font-weight:600;font-size:21.4501px;line-height:1.25;font-family:JuliaMono;-inkscape-font-specification:'JuliaMono Semi-Bold';stroke-width:0.536253" />
      <path
         d="m 16.442705,267.83737 q -1.737458,0 -2.681262,-1.13685 -0.93308,-1.14758 -0.93308,-3.21752 v -7.61478 h 2.445312 v 7.21796 q 0,0.91162 0.15015,1.52295 0.150151,0.60061 0.589878,0.96526 0.439727,0.35392 1.276281,0.35392 1.276281,0 1.898334,-0.91163 0.632778,-0.92235 0.632778,-2.32733 v -6.82113 h 2.456036 v 9.24499 q 0,0.6864 0.0429,1.67311 l 0.03218,0.87945 h -2.402411 l -0.0858,-1.3299 q -0.611328,0.84727 -1.404981,1.17975 -0.793654,0.32175 -2.01631,0.32175 z"
         id="path30281"
         style="font-weight:600;font-size:21.4501px;line-height:1.25;font-family:JuliaMono;-inkscape-font-specification:'JuliaMono Semi-Bold';stroke-width:0.536253" />
      <path
         d="m 32.691123,267.92317 q -1.329906,0 -2.177185,-0.36465 -0.836554,-0.36465 -1.254831,-1.16903 -0.418276,-0.80438 -0.418276,-2.13428 V 252.522 h -3.549992 v -1.80181 h 5.973853 v 13.11674 q 0,0.80438 0.225226,1.2441 0.225226,0.43973 0.632778,0.61133 0.418277,0.16088 1.051055,0.16088 0.514802,0 1.16903,-0.1287 0.654228,-0.13943 1.211931,-0.429 v 2.10211 q -0.772204,0.31102 -1.415707,0.41827 -0.632778,0.10725 -1.447882,0.10725 z"
         id="path30283"
         style="font-weight:600;font-size:21.4501px;line-height:1.25;font-family:JuliaMono;-inkscape-font-specification:'JuliaMono Semi-Bold';stroke-width:0.536253" />
      <path
         d="m 43.158742,253.88408 q -0.879454,0 -1.265556,-0.37537 -0.375377,-0.38611 -0.375377,-1.26556 0,-0.89018 0.375377,-1.25483 0.375377,-0.37538 1.265556,-0.37538 0.900904,0 1.265556,0.36465 0.375376,0.36466 0.375376,1.26556 0,0.89018 -0.375376,1.26556 -0.364652,0.37537 -1.265556,0.37537 z m 1.544407,1.98414 v 9.94212 h 2.960114 v 1.85543 h -8.462065 v -1.85543 h 3.05664 v -8.15104 h -3.260416 v -1.79108 z"
         id="path30285"
         style="font-weight:600;font-size:21.4501px;line-height:1.25;font-family:JuliaMono;-inkscape-font-specification:'JuliaMono Semi-Bold';stroke-width:0.536253" />
      <path
         d="m 55.052788,267.88027 q -1.833984,0 -2.820688,-0.91163 -0.97598,-0.91163 -0.97598,-2.50966 0,-2.23081 1.716008,-3.11026 1.716008,-0.87946 4.24712,-0.87946 h 1.297731 v -0.49335 q 0,-0.50408 -0.193051,-1.01888 -0.182326,-0.5148 -0.697128,-0.89018 -0.514803,-0.37537 -1.415707,-0.37537 -0.847279,0 -1.587307,0.33247 -0.729304,0.32175 -1.512232,0.89018 L 51.921073,257.359 q 0.97598,-0.79366 2.027035,-1.21193 1.051055,-0.429 2.509661,-0.429 4.483071,0 4.483071,4.34364 v 4.22567 q 0,1.43716 0.203776,3.37839 H 58.68858 q -0.07508,-0.6435 -0.107251,-1.54441 -0.536252,0.92236 -1.458607,1.34064 -0.911629,0.41827 -2.069934,0.41827 z m 0.600603,-1.82326 q 1.458606,0 2.14501,-0.99743 0.697128,-1.00815 0.697128,-2.79923 l -0.911629,-0.0107 q -2.08066,0 -3.09954,0.48263 -1.008155,0.4719 -1.008155,1.56586 0,0.9009 0.611328,1.3299 0.622053,0.429 1.565858,0.429 z"
         id="path30287"
         style="font-weight:600;font-size:21.4501px;line-height:1.25;font-family:JuliaMono;-inkscape-font-specification:'JuliaMono Semi-Bold';stroke-width:0.536253" />
      <path
         d="m 64.136871,267.66577 v -15.55132 h 3.27114 q 2.413136,0 3.946818,0.74003 1.533683,0.74003 2.295161,2.42386 0.761479,1.68383 0.761479,4.51524 0,2.82069 -0.718579,4.5367 -0.707853,1.71601 -2.27371,2.53111 -1.565858,0.80438 -4.18277,0.80438 z m 3.367666,-2.17718 q 1.480056,0 2.380961,-0.61133 0.900904,-0.61133 1.308456,-1.85544 0.407552,-1.25483 0.407552,-3.22824 0,-2.75633 -0.91163,-4.12914 -0.900904,-1.37281 -2.992289,-1.37281 h -0.975979 v 11.19696 z"
         id="path30289"
         style="font-weight:600;font-size:21.4501px;line-height:1.25;font-family:JuliaMono;-inkscape-font-specification:'JuliaMono Semi-Bold';stroke-width:0.536253" />
      <path
         d="m 82.315804,267.86955 q -1.426432,0 -2.670538,-0.69713 -1.23338,-0.70785 -1.994859,-2.06994 -0.761478,-1.3728 -0.761478,-3.27114 0,-1.81253 0.654228,-3.20679 0.654228,-1.39425 1.855433,-2.16646 1.201206,-0.78292 2.777788,-0.78292 2.477487,0 3.646517,1.7589 1.169031,1.75891 1.169031,4.99788 H 79.31279 q 0.05362,1.66238 0.868729,2.50966 0.825829,0.83655 2.262985,0.83655 1.01888,0 1.95196,-0.3003 0.943804,-0.31103 1.362081,-0.67568 l 0.965254,1.71601 q -0.407552,0.3432 -1.12613,0.65423 -0.718578,0.31103 -1.587307,0.50408 -0.868729,0.19305 -1.694558,0.19305 z m 2.434586,-7.33594 q 0,-0.83655 -0.332476,-1.5015 -0.332477,-0.66496 -0.922355,-1.04033 -0.589877,-0.37538 -1.329906,-0.37538 -0.750753,0 -1.383531,0.36465 -0.622053,0.36465 -0.99743,1.02961 -0.375377,0.66495 -0.375377,1.52295 z"
         id="path30291"
         style="font-weight:600;font-size:21.4501px;line-height:1.25;font-family:JuliaMono;-inkscape-font-specification:'JuliaMono Semi-Bold';stroke-width:0.536253" />
      <path
         d="m 96.226159,267.66577 h -2.820688 l -3.592892,-11.85118 h 2.691988 l 2.338061,8.64439 2.413136,-8.64439 h 2.552562 z"
         id="path30293"
         style="font-weight:600;font-size:21.4501px;line-height:1.25;font-family:JuliaMono;-inkscape-font-specification:'JuliaMono Semi-Bold';stroke-width:0.536253" />
      <path
         d="m 112.38878,264.57696 v 2.53111 l -9.72763,-4.26857 v -2.20936 l 9.72763,-4.21495 v 2.52039 l -6.73534,2.83141 z"
         id="path30295"
         style="font-weight:600;font-size:21.4501px;line-height:1.25;font-family:JuliaMono;-inkscape-font-specification:'JuliaMono Semi-Bold';fill:#ffae00;fill-opacity:1;stroke-width:0.536253" />
      <path
         d="m 138.25753,262.8395 -9.73835,4.26857 v -2.53111 l 6.74606,-2.80997 -6.74606,-2.83141 v -2.52039 l 9.73835,4.21495 z"
         id="path30299"
         style="font-weight:600;font-size:21.4501px;line-height:1.25;font-family:JuliaMono;-inkscape-font-specification:'JuliaMono Semi-Bold';fill:#ffae00;fill-opacity:1;stroke-width:0.536253" />
      <g
         aria-label="Brasil"
         id="text1798-3"
         style="font-size:7.23067px;line-height:1.25;font-family:'CMU Classical Serif';-inkscape-font-specification:'CMU Classical Serif';stroke-width:0.180768"
         transform="matrix(1.2672692,0,0,1.2672692,-26.644165,-74.399527)">
        <path
           d="m 74.690359,278.28241 v -5.24224 h 1.344905 q 0.37961,0 0.69776,0.12293 0.321764,0.12292 0.524223,0.41576 0.202459,0.28923 0.202459,0.77007 0,0.33984 -0.07231,0.55314 -0.07231,0.20969 -0.206074,0.33984 -0.130152,0.12654 -0.357918,0.25669 1.142446,0.235 1.142446,1.32321 0,0.82069 -0.53507,1.14245 -0.531454,0.31815 -1.323212,0.31815 z m 1.084601,-2.94288 q 0.516993,0 0.824296,-0.20608 0.310919,-0.20969 0.310919,-0.74114 0,-0.49169 -0.289227,-0.67968 -0.289227,-0.188 -0.75922,-0.188 h -0.636299 v 1.8149 z m 0.144613,2.48012 q 0.444686,0 0.759221,-0.0615 0.318149,-0.0651 0.531454,-0.28562 0.213305,-0.22415 0.213305,-0.66522 0,-0.56399 -0.343457,-0.79176 -0.343457,-0.22776 -0.936372,-0.22776 h -0.918295 v 2.03182 z"
           style="font-weight:300;font-family:JuliaMono;-inkscape-font-specification:'JuliaMono Light'"
           id="path30302" />
        <path
           d="m 79.809662,278.28241 q 0,-0.34707 0.01446,-1.30875 l 0.0072,-0.7303 q 0,-0.49892 -0.01808,-0.78091 -0.01446,-0.28561 -0.04338,-0.423 -0.02531,-0.13738 -0.07592,-0.28561 h -0.592915 v -0.4483 h 1.015909 l 0.08315,0.78814 q 0.06146,-0.27838 0.231381,-0.46999 0.169921,-0.19523 0.390456,-0.29284 0.224151,-0.0976 0.441071,-0.0976 0.27115,0 0.538685,0.11208 0.27115,0.11208 0.430225,0.28561 l -0.303688,0.3543 q -0.09038,-0.10123 -0.289227,-0.19161 -0.195228,-0.0904 -0.448302,-0.0904 -0.469993,0 -0.657991,0.49168 -0.187997,0.49169 -0.187997,1.43168 v 1.65582 z"
           style="font-weight:300;font-family:JuliaMono;-inkscape-font-specification:'JuliaMono Light'"
           id="path30304" />
        <path
           d="m 84.712046,278.35472 q -0.375995,0 -0.668837,-0.11569 -0.289227,-0.11931 -0.459148,-0.36515 -0.166305,-0.24585 -0.166305,-0.61461 0,-0.78453 0.665221,-1.06291 0.665222,-0.27838 1.554594,-0.26392 l 0.412148,0.007 v -0.17353 q 0,-0.235 -0.05061,-0.44831 -0.05061,-0.21692 -0.260304,-0.4013 -0.20969,-0.18438 -0.64353,-0.18438 -0.332611,0 -0.600146,0.10846 -0.263919,0.10846 -0.585684,0.31092 l -0.267535,-0.39769 q 0.224151,-0.14461 0.397687,-0.23861 0.177152,-0.094 0.459148,-0.17715 0.285611,-0.0831 0.629068,-0.0831 0.647145,0 0.958064,0.29284 0.310919,0.28923 0.375995,0.60376 0.06508,0.31453 0.06508,0.6363 v 1.38106 q 0,0.50614 0.06508,1.11352 H 86.1365 q -0.0072,-0.0832 -0.01446,-0.24946 l -0.02169,-0.30007 q -0.191613,0.32899 -0.582069,0.47722 -0.386841,0.14462 -0.806219,0.14462 z m 0.07954,-0.41938 q 0.408533,0 0.690529,-0.20246 0.285611,-0.20608 0.426609,-0.55676 0.140998,-0.35431 0.140998,-0.80261 -0.281996,-0.0145 -0.37961,-0.0145 -1.717284,0 -1.717284,0.87853 0,0.32538 0.224151,0.51338 0.227766,0.18438 0.614607,0.18438 z"
           style="font-weight:300;font-family:JuliaMono;-inkscape-font-specification:'JuliaMono Light'"
           id="path30306" />
        <path
           d="m 89.321587,278.3041 q -0.509762,0 -0.845988,-0.16992 -0.336227,-0.17354 -0.629069,-0.50253 l 0.347072,-0.3543 q 0.281997,0.27476 0.563993,0.41576 0.285611,0.141 0.607376,0.141 0.213305,0 0.441071,-0.0723 0.231381,-0.0759 0.386841,-0.22415 0.155459,-0.15184 0.155459,-0.36876 0,-0.18439 -0.10846,-0.28923 -0.104845,-0.10846 -0.278381,-0.16269 -0.173536,-0.0579 -0.506147,-0.13015 -0.159074,-0.0325 -0.213304,-0.047 -0.412149,-0.094 -0.69776,-0.20969 -0.285612,-0.11569 -0.48084,-0.34707 -0.195228,-0.235 -0.195228,-0.61461 0,-0.39046 0.206074,-0.64353 0.206074,-0.25669 0.53507,-0.37238 0.328995,-0.11931 0.70499,-0.11931 0.795374,0 1.265368,0.47 l -0.339842,0.39045 q -0.437455,-0.34707 -0.918295,-0.34707 -0.238612,0 -0.451917,0.0723 -0.213305,0.0723 -0.343457,0.20969 -0.130152,0.13738 -0.130152,0.31815 0,0.31092 0.328996,0.48445 0.328995,0.16992 0.842373,0.27477 l 0.119306,0.0217 q 0.328995,0.0615 0.560377,0.14823 0.231381,0.0832 0.412148,0.29646 0.180767,0.2133 0.180767,0.5893 0,0.41214 -0.231382,0.66883 -0.231381,0.25669 -0.578453,0.36515 -0.343457,0.10846 -0.708606,0.10846 z"
           style="font-weight:300;font-family:JuliaMono;-inkscape-font-specification:'JuliaMono Light'"
           id="path30308" />
        <path
           d="m 93.678054,273.45955 q -0.238612,0 -0.339841,-0.10123 -0.10123,-0.10484 -0.10123,-0.34707 0,-0.24223 0.10123,-0.34346 0.101229,-0.10484 0.339841,-0.10484 0.245843,0 0.347072,0.10123 0.10123,0.10123 0.10123,0.34707 0,0.24223 -0.10123,0.34707 -0.101229,0.10123 -0.347072,0.10123 z m 0.332611,0.84599 v 3.50688 h 1.062908 v 0.46999 h -2.711501 v -0.46999 h 1.127985 v -3.05858 h -1.200292 v -0.4483 z"
           style="font-weight:300;font-family:JuliaMono;-inkscape-font-specification:'JuliaMono Light'"
           id="path30310" />
        <path
           d="m 98.844356,278.36918 q -0.451917,0 -0.712221,-0.11931 -0.260304,-0.12292 -0.375995,-0.39045 -0.112075,-0.26754 -0.112075,-0.72669 v -4.1504 h -1.29429 v -0.41215 h 1.814898 v 4.59148 q 0,0.31815 0.07592,0.4736 0.07954,0.15546 0.245843,0.20608 0.166305,0.0506 0.480839,0.0506 0.15546,0 0.361534,-0.0506 0.209689,-0.0542 0.361533,-0.13738 v 0.51337 q -0.274765,0.0868 -0.444686,0.11931 -0.169921,0.0325 -0.401302,0.0325 z"
           style="font-weight:300;font-family:JuliaMono;-inkscape-font-specification:'JuliaMono Light'"
           id="path30312" />
      </g>
    </g>
  </g>
</svg>
