<?xml version="1.0" encoding="UTF-8" standalone="no"?>
<!-- Created with Inkscape (http://www.inkscape.org/) -->

<svg
   width="47.784168mm"
   height="37.784523mm"
   viewBox="0 0 47.78417 37.784523"
   version="1.1"
   id="svg5"
   inkscape:version="1.1.1 (3bf5ae0d25, 2021-09-20)"
   sodipodi:docname="symbol.svg"
   xmlns:inkscape="http://www.inkscape.org/namespaces/inkscape"
   xmlns:sodipodi="http://sodipodi.sourceforge.net/DTD/sodipodi-0.dtd"
   xmlns="http://www.w3.org/2000/svg"
   xmlns:svg="http://www.w3.org/2000/svg">
  <sodipodi:namedview
     id="namedview7"
     pagecolor="#ffffff"
     bordercolor="#666666"
     borderopacity="1.0"
     inkscape:pageshadow="2"
     inkscape:pageopacity="0.0"
     inkscape:pagecheckerboard="0"
     inkscape:document-units="mm"
     showgrid="false"
     objecttolerance="20"
     inkscape:snap-path-clip="false"
     inkscape:snap-path-mask="false"
     inkscape:snap-perpendicular="false"
     inkscape:snap-tangential="false"
     inkscape:zoom="1.5411756"
     inkscape:cx="-63.587823"
     inkscape:cy="149.23673"
     inkscape:window-width="1920"
     inkscape:window-height="1011"
     inkscape:window-x="0"
     inkscape:window-y="32"
     inkscape:window-maximized="1"
     inkscape:current-layer="g1921"
     lock-margins="true"
     fit-margin-top="5"
     fit-margin-left="5"
     fit-margin-right="5"
     fit-margin-bottom="5" />
  <defs
     id="defs2" />
  <g
     inkscape:label="Layer 1"
     inkscape:groupmode="layer"
     id="layer1"
     transform="translate(-101.68364,-200.60056)">
    <g
       id="g1921">
      <path
         id="path54997-2-9-7-9-8-7"
         style="fill:#4d64ae;fill-opacity:1;stroke-width:5.57689;stroke-linecap:round;stroke-linejoin:round;stroke-miterlimit:4;stroke-dasharray:none;stroke-dashoffset:19.5402;paint-order:markers stroke fill"
         d="m 124.07231,205.82125 a 6.4765882,6.4765882 0 0 0 -4.09621,3.32528 l 11.92932,4.93974 a 6.4765882,6.4765882 0 0 0 0.0991,-3.68537 6.4765882,6.4765882 0 0 0 -7.93219,-4.57965 z m -4.47497,4.2298 a 6.4765882,6.4765882 0 0 0 -0.10469,3.70239 6.4765882,6.4765882 0 0 0 7.93219,4.57965 6.4765882,6.4765882 0 0 0 4.10444,-3.34248 z" />
      <path
         d="m 106.68364,211.84566 9.97471,-5.12035 v 0.86447 q 0,0.14629 -0.0798,0.2527 -0.0798,0.10639 -0.27929,0.21279 l -7.35468,3.72389 q -0.43889,0.22609 -0.94427,0.34579 0.26599,0.0665 0.49208,0.14629 0.23939,0.0798 0.45219,0.18619 l 7.35468,3.73719 q 0.19949,0.0931 0.27929,0.2128 0.0798,0.10639 0.0798,0.25269 v 0.86447 l -9.97471,-5.13364 z"
         style="font-weight:300;font-size:15.5007px;line-height:1.25;font-family:Lato;-inkscape-font-specification:'Lato Light';fill:#ffae00;fill-opacity:1;stroke-width:0.66498"
         id="path957" />
      <path
         d="m 134.49311,217.52459 v -0.86447 q 0,-0.14629 0.0798,-0.2527 0.0798,-0.11969 0.26599,-0.21279 l 7.36798,-3.73719 q 0.41229,-0.21279 0.94427,-0.33249 -0.26599,-0.0665 -0.50538,-0.14629 -0.2261,-0.0798 -0.43889,-0.19949 l -7.36798,-3.72389 q -0.34579,-0.1862 -0.34579,-0.46549 v -0.86447 l 9.9747,5.12034 v 0.54529 z"
         style="font-weight:300;font-size:15.5007px;line-height:1.25;font-family:Lato;-inkscape-font-specification:'Lato Light';fill:#ffae00;fill-opacity:1;stroke-width:0.66498"
         id="path961" />
      <g
         id="g939"
         transform="matrix(1.7160009,0,0,1.7160009,-17.577595,127.88433)">
        <circle
           style="fill:#9259a3;fill-opacity:1;stroke-width:2.25515;stroke-linecap:round;stroke-linejoin:round;stroke-miterlimit:4;stroke-dasharray:none;stroke-dashoffset:19.5402;paint-order:markers stroke fill"
           id="path54997-7-2-2-6-2-8-6"
           cx="89.817314"
           cy="58.861633"
           r="2.6189606" />
        <circle
           style="fill:#ca3c32;fill-opacity:1;stroke-width:2.25515;stroke-linecap:round;stroke-linejoin:round;stroke-miterlimit:4;stroke-dasharray:none;stroke-dashoffset:19.5402;paint-order:markers stroke fill"
           id="path54997-7-5-8-8-89-2-4-1"
           cx="77.027962"
           cy="58.861633"
           r="2.6189606" />
        <circle
           style="fill:#399746;fill-opacity:1;stroke-width:2.25515;stroke-linecap:round;stroke-linejoin:round;stroke-miterlimit:4;stroke-dasharray:none;stroke-dashoffset:19.5402;paint-order:markers stroke fill"
           id="path54997-7-5-8-8-8-0-3-3-0"
           cx="83.4226"
           cy="58.861633"
           r="2.6189606" />
      </g>
    </g>
    <g
       aria-label="/"
       transform="matrix(0.99318006,0,0,1.0068668,-42.467407,-38.104184)"
       id="text980-43-8-6-5-94"
       style="font-size:9.61626px;line-height:1.25;font-family:'CMU Classical Serif';-inkscape-font-specification:'CMU Classical Serif';fill:#ca3c32;fill-opacity:1;stroke:#ca3c32;stroke-width:0.24;stroke-miterlimit:4;stroke-dasharray:none;stroke-opacity:1" />
  </g>
</svg>
