<?xml version="1.0" encoding="utf-8"?>
<svg xmlns="http://www.w3.org/2000/svg" xmlns:xlink="http://www.w3.org/1999/xlink" width="600" height="400" viewBox="0 0 2400 1600">
<defs>
  <clipPath id="clip640">
    <rect x="0" y="0" width="2400" height="1600"/>
  </clipPath>
</defs>
<path clip-path="url(#clip640)" d="
M0 1600 L2400 1600 L2400 0 L0 0  Z
  " fill="#ffffff" fill-rule="evenodd" fill-opacity="1"/>
<defs>
  <clipPath id="clip641">
    <rect x="480" y="0" width="1681" height="1600"/>
  </clipPath>
</defs>
<path clip-path="url(#clip640)" d="
M193.936 1486.45 L2352.76 1486.45 L2352.76 47.2441 L193.936 47.2441  Z
  " fill="#ffffff" fill-rule="evenodd" fill-opacity="1"/>
<defs>
  <clipPath id="clip642">
    <rect x="193" y="47" width="2160" height="1440"/>
  </clipPath>
</defs>
<polyline clip-path="url(#clip642)" style="stroke:#000000; stroke-linecap:butt; stroke-linejoin:round; stroke-width:2; stroke-opacity:0.1; fill:none" points="
  662.359,1486.45 662.359,47.2441 
  "/>
<polyline clip-path="url(#clip642)" style="stroke:#000000; stroke-linecap:butt; stroke-linejoin:round; stroke-width:2; stroke-opacity:0.1; fill:none" points="
  1180.98,1486.45 1180.98,47.2441 
  "/>
<polyline clip-path="url(#clip642)" style="stroke:#000000; stroke-linecap:butt; stroke-linejoin:round; stroke-width:2; stroke-opacity:0.1; fill:none" points="
  1699.6,1486.45 1699.6,47.2441 
  "/>
<polyline clip-path="url(#clip642)" style="stroke:#000000; stroke-linecap:butt; stroke-linejoin:round; stroke-width:2; stroke-opacity:0.1; fill:none" points="
  2218.22,1486.45 2218.22,47.2441 
  "/>
<polyline clip-path="url(#clip640)" style="stroke:#000000; stroke-linecap:butt; stroke-linejoin:round; stroke-width:4; stroke-opacity:1; fill:none" points="
  193.936,1486.45 2352.76,1486.45 
  "/>
<polyline clip-path="url(#clip640)" style="stroke:#000000; stroke-linecap:butt; stroke-linejoin:round; stroke-width:4; stroke-opacity:1; fill:none" points="
  662.359,1486.45 662.359,1467.55 
  "/>
<polyline clip-path="url(#clip640)" style="stroke:#000000; stroke-linecap:butt; stroke-linejoin:round; stroke-width:4; stroke-opacity:1; fill:none" points="
  1180.98,1486.45 1180.98,1467.55 
  "/>
<polyline clip-path="url(#clip640)" style="stroke:#000000; stroke-linecap:butt; stroke-linejoin:round; stroke-width:4; stroke-opacity:1; fill:none" points="
  1699.6,1486.45 1699.6,1467.55 
  "/>
<polyline clip-path="url(#clip640)" style="stroke:#000000; stroke-linecap:butt; stroke-linejoin:round; stroke-width:4; stroke-opacity:1; fill:none" points="
  2218.22,1486.45 2218.22,1467.55 
  "/>
<path clip-path="url(#clip640)" d="M662.359 1517.37 Q658.748 1517.37 656.919 1520.93 Q655.114 1524.47 655.114 1531.6 Q655.114 1538.71 656.919 1542.27 Q658.748 1545.82 662.359 1545.82 Q665.993 1545.82 667.799 1542.27 Q669.628 1538.71 669.628 1531.6 Q669.628 1524.47 667.799 1520.93 Q665.993 1517.37 662.359 1517.37 M662.359 1513.66 Q668.169 1513.66 671.225 1518.27 Q674.304 1522.85 674.304 1531.6 Q674.304 1540.33 671.225 1544.94 Q668.169 1549.52 662.359 1549.52 Q656.549 1549.52 653.47 1544.94 Q650.415 1540.33 650.415 1531.6 Q650.415 1522.85 653.47 1518.27 Q656.549 1513.66 662.359 1513.66 Z" fill="#000000" fill-rule="evenodd" fill-opacity="1" /><path clip-path="url(#clip640)" d="M1175.63 1544.91 L1191.95 1544.91 L1191.95 1548.85 L1170.01 1548.85 L1170.01 1544.91 Q1172.67 1542.16 1177.25 1537.53 Q1181.86 1532.88 1183.04 1531.53 Q1185.29 1529.01 1186.17 1527.27 Q1187.07 1525.51 1187.07 1523.82 Q1187.07 1521.07 1185.12 1519.33 Q1183.2 1517.6 1180.1 1517.6 Q1177.9 1517.6 1175.45 1518.36 Q1173.02 1519.13 1170.24 1520.68 L1170.24 1515.95 Q1173.06 1514.82 1175.52 1514.24 Q1177.97 1513.66 1180.01 1513.66 Q1185.38 1513.66 1188.57 1516.35 Q1191.77 1519.03 1191.77 1523.52 Q1191.77 1525.65 1190.96 1527.57 Q1190.17 1529.47 1188.06 1532.07 Q1187.49 1532.74 1184.38 1535.95 Q1181.28 1539.15 1175.63 1544.91 Z" fill="#000000" fill-rule="evenodd" fill-opacity="1" /><path clip-path="url(#clip640)" d="M1702.61 1518.36 L1690.81 1536.81 L1702.61 1536.81 L1702.61 1518.36 M1701.38 1514.29 L1707.26 1514.29 L1707.26 1536.81 L1712.2 1536.81 L1712.2 1540.7 L1707.26 1540.7 L1707.26 1548.85 L1702.61 1548.85 L1702.61 1540.7 L1687.01 1540.7 L1687.01 1536.19 L1701.38 1514.29 Z" fill="#000000" fill-rule="evenodd" fill-opacity="1" /><path clip-path="url(#clip640)" d="M2218.63 1529.7 Q2215.48 1529.7 2213.63 1531.86 Q2211.8 1534.01 2211.8 1537.76 Q2211.8 1541.49 2213.63 1543.66 Q2215.48 1545.82 2218.63 1545.82 Q2221.78 1545.82 2223.61 1543.66 Q2225.46 1541.49 2225.46 1537.76 Q2225.46 1534.01 2223.61 1531.86 Q2221.78 1529.7 2218.63 1529.7 M2227.91 1515.05 L2227.91 1519.31 Q2226.15 1518.48 2224.35 1518.04 Q2222.56 1517.6 2220.81 1517.6 Q2216.18 1517.6 2213.72 1520.72 Q2211.29 1523.85 2210.94 1530.17 Q2212.31 1528.15 2214.37 1527.09 Q2216.43 1526 2218.91 1526 Q2224.12 1526 2227.12 1529.17 Q2230.16 1532.32 2230.16 1537.76 Q2230.16 1543.08 2227.01 1546.3 Q2223.86 1549.52 2218.63 1549.52 Q2212.63 1549.52 2209.46 1544.94 Q2206.29 1540.33 2206.29 1531.6 Q2206.29 1523.41 2210.18 1518.55 Q2214.07 1513.66 2220.62 1513.66 Q2222.38 1513.66 2224.16 1514.01 Q2225.97 1514.36 2227.91 1515.05 Z" fill="#000000" fill-rule="evenodd" fill-opacity="1" /><polyline clip-path="url(#clip642)" style="stroke:#000000; stroke-linecap:butt; stroke-linejoin:round; stroke-width:2; stroke-opacity:0.1; fill:none" points="
  193.936,1445.72 2352.76,1445.72 
  "/>
<polyline clip-path="url(#clip642)" style="stroke:#000000; stroke-linecap:butt; stroke-linejoin:round; stroke-width:2; stroke-opacity:0.1; fill:none" points="
  193.936,1106.28 2352.76,1106.28 
  "/>
<polyline clip-path="url(#clip642)" style="stroke:#000000; stroke-linecap:butt; stroke-linejoin:round; stroke-width:2; stroke-opacity:0.1; fill:none" points="
  193.936,766.846 2352.76,766.846 
  "/>
<polyline clip-path="url(#clip642)" style="stroke:#000000; stroke-linecap:butt; stroke-linejoin:round; stroke-width:2; stroke-opacity:0.1; fill:none" points="
  193.936,427.411 2352.76,427.411 
  "/>
<polyline clip-path="url(#clip642)" style="stroke:#000000; stroke-linecap:butt; stroke-linejoin:round; stroke-width:2; stroke-opacity:0.1; fill:none" points="
  193.936,87.9763 2352.76,87.9763 
  "/>
<polyline clip-path="url(#clip640)" style="stroke:#000000; stroke-linecap:butt; stroke-linejoin:round; stroke-width:4; stroke-opacity:1; fill:none" points="
  193.936,1486.45 193.936,47.2441 
  "/>
<polyline clip-path="url(#clip640)" style="stroke:#000000; stroke-linecap:butt; stroke-linejoin:round; stroke-width:4; stroke-opacity:1; fill:none" points="
  193.936,1445.72 212.834,1445.72 
  "/>
<polyline clip-path="url(#clip640)" style="stroke:#000000; stroke-linecap:butt; stroke-linejoin:round; stroke-width:4; stroke-opacity:1; fill:none" points="
  193.936,1106.28 212.834,1106.28 
  "/>
<polyline clip-path="url(#clip640)" style="stroke:#000000; stroke-linecap:butt; stroke-linejoin:round; stroke-width:4; stroke-opacity:1; fill:none" points="
  193.936,766.846 212.834,766.846 
  "/>
<polyline clip-path="url(#clip640)" style="stroke:#000000; stroke-linecap:butt; stroke-linejoin:round; stroke-width:4; stroke-opacity:1; fill:none" points="
  193.936,427.411 212.834,427.411 
  "/>
<polyline clip-path="url(#clip640)" style="stroke:#000000; stroke-linecap:butt; stroke-linejoin:round; stroke-width:4; stroke-opacity:1; fill:none" points="
  193.936,87.9763 212.834,87.9763 
  "/>
<path clip-path="url(#clip640)" d="M50.9921 1446.17 L80.6679 1446.17 L80.6679 1450.1 L50.9921 1450.1 L50.9921 1446.17 Z" fill="#000000" fill-rule="evenodd" fill-opacity="1" /><path clip-path="url(#clip640)" d="M91.5706 1459.06 L99.2095 1459.06 L99.2095 1432.69 L90.8993 1434.36 L90.8993 1430.1 L99.1632 1428.44 L103.839 1428.44 L103.839 1459.06 L111.478 1459.06 L111.478 1463 L91.5706 1463 L91.5706 1459.06 Z" fill="#000000" fill-rule="evenodd" fill-opacity="1" /><path clip-path="url(#clip640)" d="M120.922 1457.12 L125.807 1457.12 L125.807 1463 L120.922 1463 L120.922 1457.12 Z" fill="#000000" fill-rule="evenodd" fill-opacity="1" /><path clip-path="url(#clip640)" d="M145.992 1431.51 Q142.381 1431.51 140.552 1435.08 Q138.746 1438.62 138.746 1445.75 Q138.746 1452.86 140.552 1456.42 Q142.381 1459.96 145.992 1459.96 Q149.626 1459.96 151.431 1456.42 Q153.26 1452.86 153.26 1445.75 Q153.26 1438.62 151.431 1435.08 Q149.626 1431.51 145.992 1431.51 M145.992 1427.81 Q151.802 1427.81 154.857 1432.42 Q157.936 1437 157.936 1445.75 Q157.936 1454.48 154.857 1459.08 Q151.802 1463.67 145.992 1463.67 Q140.181 1463.67 137.103 1459.08 Q134.047 1454.48 134.047 1445.75 Q134.047 1437 137.103 1432.42 Q140.181 1427.81 145.992 1427.81 Z" fill="#000000" fill-rule="evenodd" fill-opacity="1" /><path clip-path="url(#clip640)" d="M51.9875 1106.73 L81.6633 1106.73 L81.6633 1110.67 L51.9875 1110.67 L51.9875 1106.73 Z" fill="#000000" fill-rule="evenodd" fill-opacity="1" /><path clip-path="url(#clip640)" d="M101.756 1092.08 Q98.1447 1092.08 96.316 1095.64 Q94.5104 1099.19 94.5104 1106.32 Q94.5104 1113.42 96.316 1116.99 Q98.1447 1120.53 101.756 1120.53 Q105.39 1120.53 107.196 1116.99 Q109.024 1113.42 109.024 1106.32 Q109.024 1099.19 107.196 1095.64 Q105.39 1092.08 101.756 1092.08 M101.756 1088.38 Q107.566 1088.38 110.621 1092.98 Q113.7 1097.57 113.7 1106.32 Q113.7 1115.04 110.621 1119.65 Q107.566 1124.23 101.756 1124.23 Q95.9456 1124.23 92.8669 1119.65 Q89.8114 1115.04 89.8114 1106.32 Q89.8114 1097.57 92.8669 1092.98 Q95.9456 1088.38 101.756 1088.38 Z" fill="#000000" fill-rule="evenodd" fill-opacity="1" /><path clip-path="url(#clip640)" d="M121.918 1117.68 L126.802 1117.68 L126.802 1123.56 L121.918 1123.56 L121.918 1117.68 Z" fill="#000000" fill-rule="evenodd" fill-opacity="1" /><path clip-path="url(#clip640)" d="M137.033 1089 L155.39 1089 L155.39 1092.94 L141.316 1092.94 L141.316 1101.41 Q142.334 1101.06 143.353 1100.9 Q144.371 1100.71 145.39 1100.71 Q151.177 1100.71 154.556 1103.89 Q157.936 1107.06 157.936 1112.47 Q157.936 1118.05 154.464 1121.15 Q150.992 1124.23 144.672 1124.23 Q142.496 1124.23 140.228 1123.86 Q137.982 1123.49 135.575 1122.75 L135.575 1118.05 Q137.658 1119.19 139.881 1119.74 Q142.103 1120.3 144.58 1120.3 Q148.584 1120.3 150.922 1118.19 Q153.26 1116.08 153.26 1112.47 Q153.26 1108.86 150.922 1106.76 Q148.584 1104.65 144.58 1104.65 Q142.705 1104.65 140.83 1105.07 Q138.978 1105.48 137.033 1106.36 L137.033 1089 Z" fill="#000000" fill-rule="evenodd" fill-opacity="1" /><path clip-path="url(#clip640)" d="M100.76 752.645 Q97.1493 752.645 95.3206 756.209 Q93.515 759.751 93.515 766.881 Q93.515 773.987 95.3206 777.552 Q97.1493 781.094 100.76 781.094 Q104.395 781.094 106.2 777.552 Q108.029 773.987 108.029 766.881 Q108.029 759.751 106.2 756.209 Q104.395 752.645 100.76 752.645 M100.76 748.941 Q106.571 748.941 109.626 753.547 Q112.705 758.131 112.705 766.881 Q112.705 775.608 109.626 780.214 Q106.571 784.797 100.76 784.797 Q94.9502 784.797 91.8715 780.214 Q88.816 775.608 88.816 766.881 Q88.816 758.131 91.8715 753.547 Q94.9502 748.941 100.76 748.941 Z" fill="#000000" fill-rule="evenodd" fill-opacity="1" /><path clip-path="url(#clip640)" d="M120.922 778.246 L125.807 778.246 L125.807 784.126 L120.922 784.126 L120.922 778.246 Z" fill="#000000" fill-rule="evenodd" fill-opacity="1" /><path clip-path="url(#clip640)" d="M145.992 752.645 Q142.381 752.645 140.552 756.209 Q138.746 759.751 138.746 766.881 Q138.746 773.987 140.552 777.552 Q142.381 781.094 145.992 781.094 Q149.626 781.094 151.431 777.552 Q153.26 773.987 153.26 766.881 Q153.26 759.751 151.431 756.209 Q149.626 752.645 145.992 752.645 M145.992 748.941 Q151.802 748.941 154.857 753.547 Q157.936 758.131 157.936 766.881 Q157.936 775.608 154.857 780.214 Q151.802 784.797 145.992 784.797 Q140.181 784.797 137.103 780.214 Q134.047 775.608 134.047 766.881 Q134.047 758.131 137.103 753.547 Q140.181 748.941 145.992 748.941 Z" fill="#000000" fill-rule="evenodd" fill-opacity="1" /><path clip-path="url(#clip640)" d="M101.756 413.21 Q98.1447 413.21 96.316 416.775 Q94.5104 420.316 94.5104 427.446 Q94.5104 434.552 96.316 438.117 Q98.1447 441.659 101.756 441.659 Q105.39 441.659 107.196 438.117 Q109.024 434.552 109.024 427.446 Q109.024 420.316 107.196 416.775 Q105.39 413.21 101.756 413.21 M101.756 409.506 Q107.566 409.506 110.621 414.113 Q113.7 418.696 113.7 427.446 Q113.7 436.173 110.621 440.779 Q107.566 445.362 101.756 445.362 Q95.9456 445.362 92.8669 440.779 Q89.8114 436.173 89.8114 427.446 Q89.8114 418.696 92.8669 414.113 Q95.9456 409.506 101.756 409.506 Z" fill="#000000" fill-rule="evenodd" fill-opacity="1" /><path clip-path="url(#clip640)" d="M121.918 438.812 L126.802 438.812 L126.802 444.691 L121.918 444.691 L121.918 438.812 Z" fill="#000000" fill-rule="evenodd" fill-opacity="1" /><path clip-path="url(#clip640)" d="M137.033 410.131 L155.39 410.131 L155.39 414.066 L141.316 414.066 L141.316 422.538 Q142.334 422.191 143.353 422.029 Q144.371 421.844 145.39 421.844 Q151.177 421.844 154.556 425.015 Q157.936 428.187 157.936 433.603 Q157.936 439.182 154.464 442.284 Q150.992 445.362 144.672 445.362 Q142.496 445.362 140.228 444.992 Q137.982 444.622 135.575 443.881 L135.575 439.182 Q137.658 440.316 139.881 440.872 Q142.103 441.427 144.58 441.427 Q148.584 441.427 150.922 439.321 Q153.26 437.214 153.26 433.603 Q153.26 429.992 150.922 427.886 Q148.584 425.779 144.58 425.779 Q142.705 425.779 140.83 426.196 Q138.978 426.613 137.033 427.492 L137.033 410.131 Z" fill="#000000" fill-rule="evenodd" fill-opacity="1" /><path clip-path="url(#clip640)" d="M91.5706 101.321 L99.2095 101.321 L99.2095 74.9555 L90.8993 76.6222 L90.8993 72.3629 L99.1632 70.6963 L103.839 70.6963 L103.839 101.321 L111.478 101.321 L111.478 105.256 L91.5706 105.256 L91.5706 101.321 Z" fill="#000000" fill-rule="evenodd" fill-opacity="1" /><path clip-path="url(#clip640)" d="M120.922 99.3767 L125.807 99.3767 L125.807 105.256 L120.922 105.256 L120.922 99.3767 Z" fill="#000000" fill-rule="evenodd" fill-opacity="1" /><path clip-path="url(#clip640)" d="M145.992 73.775 Q142.381 73.775 140.552 77.3398 Q138.746 80.8814 138.746 88.011 Q138.746 95.1174 140.552 98.6822 Q142.381 102.224 145.992 102.224 Q149.626 102.224 151.431 98.6822 Q153.26 95.1174 153.26 88.011 Q153.26 80.8814 151.431 77.3398 Q149.626 73.775 145.992 73.775 M145.992 70.0713 Q151.802 70.0713 154.857 74.6777 Q157.936 79.261 157.936 88.011 Q157.936 96.7378 154.857 101.344 Q151.802 105.928 145.992 105.928 Q140.181 105.928 137.103 101.344 Q134.047 96.7378 134.047 88.011 Q134.047 79.261 137.103 74.6777 Q140.181 70.0713 145.992 70.0713 Z" fill="#000000" fill-rule="evenodd" fill-opacity="1" /><polyline clip-path="url(#clip642)" style="stroke:#009af9; stroke-linecap:butt; stroke-linejoin:round; stroke-width:4; stroke-opacity:1; fill:none" points="
  255.035,766.846 260.007,753.829 264.979,740.818 269.952,727.815 274.924,714.827 320.9,596.26 366.877,483.04 412.853,378.72 458.829,286.568 486.459,238.266 
  514.089,195.96 541.719,160.129 569.348,131.18 592.709,112.318 616.07,98.7638 639.431,90.6284 662.791,87.9772 688.167,91.3358 713.544,101.158 738.92,117.351 
  764.296,139.758 787.691,165.738 811.085,196.607 834.48,232.114 857.875,271.971 908.038,370.541 958.201,483.895 1016.32,628.124 1074.44,779.293 1126.09,913.349 
  1177.74,1041.61 1223.03,1145.31 1268.32,1237.49 1293.01,1281.87 1317.7,1321.58 1342.39,1356.27 1367.08,1385.62 1391.92,1409.49 1416.75,1427.47 1441.59,1439.39 
  1466.43,1445.15 1493.89,1444.28 1521.35,1435.82 1548.81,1419.86 1576.27,1396.58 1602.4,1367.89 1628.52,1333.09 1654.65,1292.55 1680.78,1246.68 1735.11,1136.29 
  1789.45,1009.75 1835.18,894.748 1880.92,775.778 1936.76,630.523 1992.6,491.566 2018.85,430.274 2045.09,372.427 2071.34,318.617 2097.58,269.395 2139.63,201.341 
  2181.68,148.123 2223.73,111.138 2265.77,91.3554 2272.24,89.8777 2278.72,88.8216 2285.19,88.1876 2291.66,87.9763 
  "/>
<polyline clip-path="url(#clip642)" style="stroke:#e26f46; stroke-linecap:butt; stroke-linejoin:round; stroke-width:4; stroke-opacity:1; fill:none" points="
  255.035,1445.72 260.007,1445.59 264.979,1445.22 269.952,1444.59 274.924,1443.72 320.9,1423.93 366.877,1383.55 412.853,1323.82 458.829,1246.63 486.459,1192.84 
  514.089,1134.21 541.719,1071.41 569.348,1005.16 616.07,887.388 662.791,765.715 713.544,633.715 764.296,506.798 811.085,398.483 857.875,302.128 882.956,256.509 
  908.038,215.66 933.119,179.964 958.201,149.754 987.26,121.982 1016.32,102.301 1045.38,90.956 1074.44,88.0904 1100.26,92.6912 1126.09,103.973 1151.91,121.823 
  1177.74,146.066 1200.38,172.396 1223.03,203.258 1245.67,238.415 1268.32,277.6 1317.7,375.526 1367.08,487.6 1416.75,610.517 1466.43,739.154 1521.35,882.362 
  1576.27,1020.41 1628.52,1141.32 1680.78,1247.08 1707.95,1294.63 1735.11,1336.38 1762.28,1371.89 1789.45,1400.77 1835.18,1433.56 1880.92,1445.66 1908.84,1442.69 
  1936.76,1431.89 1964.68,1413.39 1992.6,1387.4 2018.85,1356.41 2045.09,1319.38 2071.34,1276.7 2097.58,1228.81 2139.63,1142.44 2181.68,1046.21 2223.73,942.661 
  2265.77,834.496 2272.24,817.621 2278.72,800.713 2285.19,783.785 2291.66,766.846 
  "/>
<path clip-path="url(#clip640)" d="
M1988.5 250.738 L2280.8 250.738 L2280.8 95.2176 L1988.5 95.2176  Z
  " fill="#ffffff" fill-rule="evenodd" fill-opacity="1"/>
<polyline clip-path="url(#clip640)" style="stroke:#000000; stroke-linecap:butt; stroke-linejoin:round; stroke-width:4; stroke-opacity:1; fill:none" points="
  1988.5,250.738 2280.8,250.738 2280.8,95.2176 1988.5,95.2176 1988.5,250.738 
  "/>
<polyline clip-path="url(#clip640)" style="stroke:#009af9; stroke-linecap:butt; stroke-linejoin:round; stroke-width:4; stroke-opacity:1; fill:none" points="
  2012.48,147.058 2156.4,147.058 
  "/>
<path clip-path="url(#clip640)" d="M2194.23 166.745 Q2192.43 171.375 2190.72 172.787 Q2189 174.199 2186.13 174.199 L2182.73 174.199 L2182.73 170.634 L2185.23 170.634 Q2186.99 170.634 2187.96 169.8 Q2188.93 168.967 2190.11 165.865 L2190.88 163.921 L2180.39 138.412 L2184.91 138.412 L2193.01 158.689 L2201.11 138.412 L2205.62 138.412 L2194.23 166.745 Z" fill="#000000" fill-rule="evenodd" fill-opacity="1" /><path clip-path="url(#clip640)" d="M2212.91 160.402 L2220.55 160.402 L2220.55 134.037 L2212.24 135.703 L2212.24 131.444 L2220.51 129.778 L2225.18 129.778 L2225.18 160.402 L2232.82 160.402 L2232.82 164.338 L2212.91 164.338 L2212.91 160.402 Z" fill="#000000" fill-rule="evenodd" fill-opacity="1" /><polyline clip-path="url(#clip640)" style="stroke:#e26f46; stroke-linecap:butt; stroke-linejoin:round; stroke-width:4; stroke-opacity:1; fill:none" points="
  2012.48,198.898 2156.4,198.898 
  "/>
<path clip-path="url(#clip640)" d="M2194.23 218.585 Q2192.43 223.215 2190.72 224.627 Q2189 226.039 2186.13 226.039 L2182.73 226.039 L2182.73 222.474 L2185.23 222.474 Q2186.99 222.474 2187.96 221.64 Q2188.93 220.807 2190.11 217.705 L2190.88 215.761 L2180.39 190.252 L2184.91 190.252 L2193.01 210.529 L2201.11 190.252 L2205.62 190.252 L2194.23 218.585 Z" fill="#000000" fill-rule="evenodd" fill-opacity="1" /><path clip-path="url(#clip640)" d="M2216.13 212.242 L2232.45 212.242 L2232.45 216.178 L2210.51 216.178 L2210.51 212.242 Q2213.17 209.488 2217.75 204.858 Q2222.36 200.205 2223.54 198.863 Q2225.78 196.34 2226.66 194.604 Q2227.57 192.844 2227.57 191.155 Q2227.57 188.4 2225.62 186.664 Q2223.7 184.928 2220.6 184.928 Q2218.4 184.928 2215.95 185.692 Q2213.52 186.455 2210.74 188.006 L2210.74 183.284 Q2213.56 182.15 2216.02 181.571 Q2218.47 180.993 2220.51 180.993 Q2225.88 180.993 2229.07 183.678 Q2232.27 186.363 2232.27 190.854 Q2232.27 192.983 2231.46 194.905 Q2230.67 196.803 2228.56 199.395 Q2227.98 200.067 2224.88 203.284 Q2221.78 206.479 2216.13 212.242 Z" fill="#000000" fill-rule="evenodd" fill-opacity="1" /></svg>
