<?xml version="1.0" encoding="UTF-8" standalone="no"?>
<!-- Created with Inkscape (http://www.inkscape.org/) -->

<svg
   width="210mm"
   height="297mm"
   viewBox="0 0 210 297"
   version="1.1"
   id="svg5"
   inkscape:version="1.1.1 (3bf5ae0d25, 2021-09-20)"
   sodipodi:docname="logosimple.svg"
   xmlns:inkscape="http://www.inkscape.org/namespaces/inkscape"
   xmlns:sodipodi="http://sodipodi.sourceforge.net/DTD/sodipodi-0.dtd"
   xmlns="http://www.w3.org/2000/svg"
   xmlns:svg="http://www.w3.org/2000/svg">
  <sodipodi:namedview
     id="namedview7"
     pagecolor="#ffffff"
     bordercolor="#666666"
     borderopacity="1.0"
     inkscape:pageshadow="2"
     inkscape:pageopacity="0.0"
     inkscape:pagecheckerboard="0"
     inkscape:document-units="mm"
     showgrid="false"
     objecttolerance="20"
     inkscape:snap-path-clip="false"
     inkscape:snap-path-mask="false"
     inkscape:snap-perpendicular="false"
     inkscape:snap-tangential="false"
     inkscape:zoom="1.0897757"
     inkscape:cx="519.83174"
     inkscape:cy="724.91982"
     inkscape:window-width="1920"
     inkscape:window-height="1011"
     inkscape:window-x="0"
     inkscape:window-y="32"
     inkscape:window-maximized="1"
     inkscape:current-layer="layer1" />
  <defs
     id="defs2" />
  <g
     inkscape:label="Layer 1"
     inkscape:groupmode="layer"
     id="layer1">
    <circle
       style="fill:#4d64ae;fill-opacity:1;stroke-width:3.24994;stroke-linecap:round;stroke-linejoin:round;stroke-miterlimit:4;stroke-dasharray:none;stroke-dashoffset:19.5402;paint-order:markers stroke fill"
       id="path54997-2-9-7-9-8"
       cx="126.76473"
       cy="136.00879"
       r="3.7742336" />
    <text
       xml:space="preserve"
       style="font-size:15.5007px;line-height:1.25;font-family:'CMU Classical Serif';-inkscape-font-specification:'CMU Classical Serif';stroke-width:0.387517"
       x="57.945782"
       y="141.23703"
       id="text980-3-69-3-5-7"><tspan
         sodipodi:role="line"
         id="tspan978-6-4-8-2-4"
         style="font-style:normal;font-variant:normal;font-weight:300;font-stretch:normal;font-family:Lato;-inkscape-font-specification:'Lato Light';stroke-width:0.387517"
         x="57.945782"
         y="141.23703">JuliaDev&lt;/&gt;</tspan></text>
    <text
       xml:space="preserve"
       style="font-size:7.08324px;line-height:1.25;font-family:'CMU Classical Serif';-inkscape-font-specification:'CMU Classical Serif';stroke-width:0.17708"
       x="121.72182"
       y="149.00156"
       id="text980-3-69-3-5-7-5"><tspan
         sodipodi:role="line"
         id="tspan978-6-4-8-2-4-4"
         style="font-style:normal;font-variant:normal;font-weight:300;font-stretch:normal;font-family:Lato;-inkscape-font-specification:'Lato Light';stroke-width:0.17708"
         x="121.72182"
         y="149.00156">Brasil</tspan></text>
    <text
       xml:space="preserve"
       style="font-size:7.08324px;line-height:1.25;font-family:'CMU Classical Serif';-inkscape-font-specification:'CMU Classical Serif';stroke-width:0.17708"
       x="98.507744"
       y="176.69801"
       id="text980-3-69-3-5-7-5-3"><tspan
         sodipodi:role="line"
         id="tspan978-6-4-8-2-4-4-6"
         style="font-style:normal;font-variant:normal;font-weight:300;font-stretch:normal;font-family:Lato;-inkscape-font-specification:'Lato Light';stroke-width:0.17708"
         x="98.507744"
         y="176.69801">Brasil</tspan></text>
    <circle
       style="fill:#9259a3;fill-opacity:1;stroke-width:2.25515;stroke-linecap:round;stroke-linejoin:round;stroke-miterlimit:4;stroke-dasharray:none;stroke-dashoffset:19.5402;paint-order:markers stroke fill"
       id="path54997-7-2-2-6-2-8"
       cx="117.71857"
       cy="146.88275"
       r="2.6189606" />
    <circle
       style="fill:#ca3c32;fill-opacity:1;stroke-width:2.25515;stroke-linecap:round;stroke-linejoin:round;stroke-miterlimit:4;stroke-dasharray:none;stroke-dashoffset:19.5402;paint-order:markers stroke fill"
       id="path54997-7-5-8-8-89-2-4"
       cx="104.92921"
       cy="146.88275"
       r="2.6189606" />
    <circle
       style="fill:#399746;fill-opacity:1;stroke-width:2.25515;stroke-linecap:round;stroke-linejoin:round;stroke-miterlimit:4;stroke-dasharray:none;stroke-dashoffset:19.5402;paint-order:markers stroke fill"
       id="path54997-7-5-8-8-8-0-3-3"
       cx="111.32384"
       cy="146.88275"
       r="2.6189606" />
    <path
       d="m 63.159588,165.92175 q 0,0.92229 -0.22476,1.62758 -0.22476,0.70528 -0.651029,1.1858 -0.42627,0.48052 -1.030797,0.72853 -0.604527,0.24026 -1.364062,0.24026 -0.348765,0 -0.705281,-0.0543 -0.356516,-0.0542 -0.736284,-0.1705 0.0078,-0.10851 0.0155,-0.21701 0.0155,-0.10851 0.031,-0.21701 0.0155,-0.0697 0.05425,-0.12401 0.0465,-0.0542 0.155007,-0.0542 0.06975,0 0.162757,0.031 0.100755,0.0233 0.232511,0.0543 0.131756,0.031 0.310014,0.062 0.178258,0.0232 0.410768,0.0232 0.589027,0 1.061798,-0.18601 0.472772,-0.18601 0.806037,-0.56577 0.333265,-0.38752 0.503772,-0.9688 0.178258,-0.58902 0.178258,-1.37956 v -7.32408 h 0.790536 z"
       style="font-weight:300;font-size:15.5007px;line-height:1.25;font-family:Lato;-inkscape-font-specification:'Lato Light';stroke-width:0.387517"
       id="path941" />
    <path
       d="m 66.39147,161.86832 v 4.92922 q 0,1.08505 0.496022,1.70508 0.496023,0.61228 1.511319,0.61228 0.751783,0 1.402813,-0.37977 0.651029,-0.38752 1.170303,-1.06955 v -5.79726 h 0.744033 v 7.7116 h -0.410768 q -0.193759,0 -0.22476,-0.20151 l -0.06975,-1.14705 q -0.534774,0.66653 -1.240056,1.06954 -0.697531,0.40302 -1.55782,0.40302 -0.643279,0 -1.123801,-0.20151 -0.480521,-0.20151 -0.798286,-0.58127 -0.317764,-0.37977 -0.480521,-0.91454 -0.162758,-0.53478 -0.162758,-1.20906 v -4.92922 z"
       style="font-weight:300;font-size:15.5007px;line-height:1.25;font-family:Lato;-inkscape-font-specification:'Lato Light';stroke-width:0.387517"
       id="path943" />
    <path
       d="m 75.064103,158.30316 v 11.27676 H 74.32007 v -11.27676 z"
       style="font-weight:300;font-size:15.5007px;line-height:1.25;font-family:Lato;-inkscape-font-specification:'Lato Light';stroke-width:0.387517"
       id="path945" />
    <path
       d="m 78.49749,161.86832 v 7.7116 h -0.736283 v -7.7116 z m 0.317764,-2.65837 q 0,0.13951 -0.062,0.26351 -0.05425,0.11626 -0.147256,0.20926 -0.093,0.093 -0.21701,0.14726 -0.124006,0.0542 -0.263512,0.0542 -0.139506,0 -0.263512,-0.0542 -0.124006,-0.0542 -0.21701,-0.14726 -0.093,-0.093 -0.147256,-0.20926 -0.05425,-0.124 -0.05425,-0.26351 0,-0.13951 0.05425,-0.26351 0.05425,-0.13176 0.147256,-0.22476 0.093,-0.093 0.21701,-0.14726 0.124006,-0.0542 0.263512,-0.0542 0.139506,0 0.263512,0.0542 0.124005,0.0542 0.21701,0.14726 0.093,0.093 0.147256,0.22476 0.062,0.124 0.062,0.26351 z"
       style="font-weight:300;font-size:15.5007px;line-height:1.25;font-family:Lato;-inkscape-font-specification:'Lato Light';stroke-width:0.387517"
       id="path947" />
    <path
       d="m 85.868071,169.57992 q -0.232511,0 -0.286763,-0.21701 l -0.108505,-0.9843 q -0.317764,0.31002 -0.635529,0.55803 -0.310014,0.24801 -0.651029,0.41852 -0.341015,0.17051 -0.736283,0.25576 -0.395268,0.093 -0.868039,0.093 -0.395268,0 -0.767285,-0.11626 -0.372017,-0.11625 -0.66653,-0.35651 -0.286763,-0.24026 -0.465021,-0.61228 -0.170508,-0.37977 -0.170508,-0.90679 0,-0.48827 0.279013,-0.90679 0.279012,-0.41852 0.875789,-0.72854 0.596777,-0.31001 1.526819,-0.49602 0.937793,-0.18601 2.247602,-0.21701 v -0.80603 q 0,-1.06955 -0.465021,-1.64308 -0.457271,-0.58127 -1.364062,-0.58127 -0.558025,0 -0.953293,0.155 -0.387517,0.15501 -0.65878,0.34102 -0.271262,0.18601 -0.44177,0.34101 -0.170507,0.15501 -0.286763,0.15501 -0.08525,0 -0.139506,-0.0387 -0.05425,-0.0387 -0.093,-0.10075 l -0.131756,-0.22476 q 0.604527,-0.60453 1.271057,-0.91455 0.66653,-0.31001 1.511319,-0.31001 0.620028,0 1.085049,0.20151 0.465021,0.19376 0.767284,0.56578 0.310014,0.36426 0.465021,0.89129 0.155007,0.51927 0.155007,1.16255 v 5.02222 z m -3.10014,-0.41077 q 0.44952,0 0.821537,-0.093 0.379767,-0.10075 0.697532,-0.27126 0.325514,-0.17826 0.604527,-0.41852 0.279012,-0.24026 0.550275,-0.51927 v -2.00735 q -1.10055,0.031 -1.898836,0.17051 -0.798286,0.13175 -1.31756,0.36426 -0.511523,0.23251 -0.759534,0.55803 -0.240261,0.31776 -0.240261,0.72853 0,0.38752 0.124006,0.67428 0.131756,0.27901 0.341015,0.46502 0.21701,0.17826 0.496023,0.26352 0.279012,0.0853 0.581276,0.0853 z"
       style="font-weight:300;font-size:15.5007px;line-height:1.25;font-family:Lato;-inkscape-font-specification:'Lato Light';stroke-width:0.387517"
       id="path949" />
    <path
       d="m 98.074848,164.09267 q 0,1.27106 -0.379767,2.28635 -0.379767,1.0153 -1.069549,1.72833 -0.689781,0.71303 -1.658574,1.0928 -0.961044,0.37977 -2.123596,0.37977 h -4.006931 v -10.96675 h 4.006931 q 1.162552,0 2.123596,0.37977 0.968793,0.37977 1.658574,1.0928 0.689782,0.71303 1.069549,1.72833 0.379767,1.01529 0.379767,2.2786 z m -0.821537,0 q 0,-1.14705 -0.317765,-2.04609 -0.317764,-0.89904 -0.89904,-1.51907 -0.581276,-0.62003 -1.395063,-0.94554 -0.813787,-0.32552 -1.798081,-0.32552 h -3.208645 v 9.68019 h 3.208645 q 0.984294,0 1.798081,-0.32552 0.813787,-0.32551 1.395063,-0.94554 0.581276,-0.62003 0.89904,-1.51907 0.317765,-0.89904 0.317765,-2.05384 z"
       style="font-weight:300;font-size:15.5007px;line-height:1.25;font-family:Lato;-inkscape-font-specification:'Lato Light';stroke-width:0.387517"
       id="path951" />
    <path
       d="m 103.16678,161.74431 q 0.65103,0 1.20905,0.22476 0.55803,0.22476 0.9688,0.65878 0.41077,0.42627 0.64328,1.05405 0.24026,0.62778 0.24026,1.44157 0,0.1705 -0.0465,0.23251 -0.0465,0.062 -0.15501,0.062 h -5.61126 v 0.14725 q 0,0.86804 0.20151,1.52682 0.20151,0.65878 0.57353,1.1083 0.37202,0.44177 0.89904,0.66653 0.52702,0.22476 1.17805,0.22476 0.58128,0 1.00755,-0.124 0.42627,-0.13176 0.71303,-0.28677 0.29451,-0.16275 0.46502,-0.28676 0.17051,-0.13175 0.24801,-0.13175 0.10076,0 0.15501,0.0775 l 0.20151,0.24801 q -0.18601,0.23251 -0.49602,0.43402 -0.30227,0.20151 -0.68203,0.34876 -0.37202,0.13951 -0.80604,0.22476 -0.42627,0.0853 -0.86029,0.0853 -0.79054,0 -1.44156,-0.27126 -0.65103,-0.27901 -1.11606,-0.80604 -0.46502,-0.52702 -0.720778,-1.28655 -0.248012,-0.76729 -0.248012,-1.75158 0,-0.82929 0.232511,-1.52682 0.240259,-0.70528 0.682029,-1.20906 0.44952,-0.51152 1.0928,-0.79828 0.65103,-0.28677 1.47257,-0.28677 z m 0.008,0.55028 q -0.59678,0 -1.06955,0.18601 -0.47277,0.18601 -0.82154,0.53477 -0.34101,0.34877 -0.55802,0.83704 -0.20926,0.48827 -0.27901,1.0928 h 5.11523 q 0,-0.62003 -0.17826,-1.1083 -0.17051,-0.49602 -0.48827,-0.83704 -0.31777,-0.34101 -0.75954,-0.51927 -0.43402,-0.18601 -0.96104,-0.18601 z"
       style="font-weight:300;font-size:15.5007px;line-height:1.25;font-family:Lato;-inkscape-font-specification:'Lato Light';stroke-width:0.387517"
       id="path953" />
    <path
       d="m 111.04111,169.57992 h -0.65103 l -3.25515,-7.7116 h 0.58128 q 0.10851,0 0.17826,0.062 0.0697,0.0542 0.093,0.124 l 2.54986,6.08403 q 0.11626,0.33326 0.18601,0.66653 0.0698,-0.33327 0.19376,-0.66653 l 2.55762,-6.08403 q 0.0387,-0.0853 0.10075,-0.13175 0.0697,-0.0542 0.16276,-0.0542 h 0.55802 z"
       style="font-weight:300;font-size:15.5007px;line-height:1.25;font-family:Lato;-inkscape-font-specification:'Lato Light';stroke-width:0.387517"
       id="path955" />
    <g
       id="g997"
       transform="translate(43.593863,116.36401)">
      <circle
         style="fill:#4d64ae;fill-opacity:1;stroke-width:3.24994;stroke-linecap:round;stroke-linejoin:round;stroke-miterlimit:4;stroke-dasharray:none;stroke-dashoffset:19.5402;paint-order:markers stroke fill"
         id="path54997-2-9-7-9-8-7"
         cx="83.470955"
         cy="47.987675"
         r="3.7742336" />
      <path
         d="m 72.360954,47.852666 5.812762,-2.983885 v 0.503773 q 0,0.08525 -0.0465,0.147257 -0.0465,0.062 -0.162757,0.124005 l -4.285944,2.170098 q -0.255761,0.131756 -0.550274,0.201509 0.155007,0.03875 0.286762,0.08525 0.139507,0.0465 0.263512,0.108505 l 4.285944,2.177848 q 0.116255,0.05425 0.162757,0.124006 0.0465,0.062 0.0465,0.147257 v 0.503772 L 72.360954,48.17043 Z"
         style="font-weight:300;font-size:15.5007px;line-height:1.25;font-family:Lato;-inkscape-font-specification:'Lato Light';stroke-width:0.387517"
         id="path957" />
      <path
         d="m 81.335863,53.564674 q -0.062,0.155007 -0.186008,0.22476 -0.124006,0.0775 -0.255762,0.0775 h -0.302264 l 4.820718,-11.641025 q 0.116255,-0.286763 0.418519,-0.286763 h 0.317764 z"
         style="font-weight:300;font-size:15.5007px;line-height:1.25;font-family:Lato;-inkscape-font-specification:'Lato Light';stroke-width:0.387517"
         id="path959" />
      <path
         d="m 88.566932,51.162065 v -0.503772 q 0,-0.08525 0.0465,-0.147257 0.0465,-0.06975 0.155007,-0.124006 l 4.293694,-2.177848 q 0.240261,-0.124006 0.550275,-0.193759 -0.155007,-0.03875 -0.294514,-0.08525 -0.131756,-0.0465 -0.255761,-0.116255 L 88.768439,45.64382 Q 88.56693,45.535315 88.56693,45.372558 v -0.503773 l 5.812762,2.983885 v 0.317764 z"
         style="font-weight:300;font-size:15.5007px;line-height:1.25;font-family:Lato;-inkscape-font-specification:'Lato Light';stroke-width:0.387517"
         id="path961" />
    </g>
    <g
       id="g939"
       transform="translate(43.541548,115.28819)">
      <circle
         style="fill:#9259a3;fill-opacity:1;stroke-width:2.25515;stroke-linecap:round;stroke-linejoin:round;stroke-miterlimit:4;stroke-dasharray:none;stroke-dashoffset:19.5402;paint-order:markers stroke fill"
         id="path54997-7-2-2-6-2-8-6"
         cx="89.817314"
         cy="58.861633"
         r="2.6189606" />
      <circle
         style="fill:#ca3c32;fill-opacity:1;stroke-width:2.25515;stroke-linecap:round;stroke-linejoin:round;stroke-miterlimit:4;stroke-dasharray:none;stroke-dashoffset:19.5402;paint-order:markers stroke fill"
         id="path54997-7-5-8-8-89-2-4-1"
         cx="77.027962"
         cy="58.861633"
         r="2.6189606" />
      <circle
         style="fill:#399746;fill-opacity:1;stroke-width:2.25515;stroke-linecap:round;stroke-linejoin:round;stroke-miterlimit:4;stroke-dasharray:none;stroke-dashoffset:19.5402;paint-order:markers stroke fill"
         id="path54997-7-5-8-8-8-0-3-3-0"
         cx="83.4226"
         cy="58.861633"
         r="2.6189606" />
    </g>
    <g
       aria-label="/"
       transform="matrix(0.99318006,0,0,1.0068668,-42.467407,-38.104184)"
       id="text980-43-8-6-5-94"
       style="font-size:9.61626px;line-height:1.25;font-family:'CMU Classical Serif';-inkscape-font-specification:'CMU Classical Serif';fill:#ca3c32;fill-opacity:1;stroke:#ca3c32;stroke-width:0.24;stroke-miterlimit:4;stroke-dasharray:none;stroke-opacity:1" />
  </g>
</svg>
