<?xml version="1.0" encoding="UTF-8" standalone="no"?>
<!-- Created with Inkscape (http://www.inkscape.org/) -->

<svg
   width="156.467mm"
   height="51.687031mm"
   viewBox="0 0 156.467 51.687031"
   version="1.1"
   id="svg5"
   inkscape:version="1.1.1 (3bf5ae0d25, 2021-09-20)"
   sodipodi:docname="logo2.svg"
   xmlns:inkscape="http://www.inkscape.org/namespaces/inkscape"
   xmlns:sodipodi="http://sodipodi.sourceforge.net/DTD/sodipodi-0.dtd"
   xmlns="http://www.w3.org/2000/svg"
   xmlns:svg="http://www.w3.org/2000/svg">
  <sodipodi:namedview
     id="namedview7"
     pagecolor="#ffffff"
     bordercolor="#666666"
     borderopacity="1.0"
     inkscape:pageshadow="2"
     inkscape:pageopacity="0.0"
     inkscape:pagecheckerboard="0"
     inkscape:document-units="mm"
     showgrid="false"
     objecttolerance="20"
     inkscape:snap-path-clip="false"
     inkscape:snap-path-mask="false"
     inkscape:snap-perpendicular="false"
     inkscape:snap-tangential="false"
     inkscape:zoom="1.5411756"
     inkscape:cx="280.95436"
     inkscape:cy="142.09932"
     inkscape:window-width="1920"
     inkscape:window-height="1011"
     inkscape:window-x="0"
     inkscape:window-y="32"
     inkscape:window-maximized="1"
     inkscape:current-layer="layer1"
     lock-margins="true"
     fit-margin-top="10"
     fit-margin-left="10"
     fit-margin-right="10"
     fit-margin-bottom="10" />
  <defs
     id="defs2" />
  <g
     inkscape:label="Layer 1"
     inkscape:groupmode="layer"
     id="layer1"
     transform="translate(1.9991816,-191.69805)">
    <g
       aria-label="Brasil"
       id="text980-3-69-3-5-7-5-3"
       style="font-size:12.1548px;line-height:1.25;font-family:'CMU Classical Serif';-inkscape-font-specification:'CMU Classical Serif';stroke-width:0.303869">
      <path
         d="m 78.014622,233.26364 v -8.59952 h 2.473502 q 0.735366,0 1.276254,0.14586 0.540889,0.14586 0.893378,0.43149 0.352489,0.27956 0.522657,0.68675 0.170167,0.40719 0.170167,0.92376 0,0.34034 -0.121548,0.65636 -0.115471,0.31603 -0.340335,0.58343 -0.224863,0.26741 -0.553043,0.46796 -0.322102,0.19448 -0.735365,0.2978 1.014925,0.15193 1.555814,0.68067 0.546966,0.52265 0.546966,1.37349 0,0.54696 -0.194477,0.98454 -0.194477,0.43757 -0.565198,0.74144 -0.370721,0.30387 -0.91161,0.46796 -0.540889,0.15801 -1.227635,0.15801 z m 0.625973,-4.12048 v 3.62213 h 2.157477 q 1.130396,0 1.707749,-0.48619 0.583431,-0.49227 0.583431,-1.37957 0,-0.40718 -0.158013,-0.72929 -0.151935,-0.32817 -0.44365,-0.55304 -0.291715,-0.23094 -0.717133,-0.35249 -0.425418,-0.12155 -0.966307,-0.12155 z m 0,-0.4558 h 1.859684 q 0.595585,0 1.014926,-0.15194 0.425418,-0.15193 0.692824,-0.4011 0.273483,-0.24918 0.401108,-0.5652 0.127625,-0.31603 0.127625,-0.65028 0,-0.86907 -0.553043,-1.31272 -0.546966,-0.44973 -1.695595,-0.44973 h -1.847529 z"
         style="font-weight:300;font-family:Lato;-inkscape-font-specification:'Lato Light'"
         id="path1464" />
      <path
         d="m 85.271029,233.26364 v -6.04701 h 0.309947 q 0.103316,0 0.145858,0.0425 0.04254,0.0425 0.0547,0.14586 l 0.04254,1.27017 q 0.13978,-0.37072 0.316025,-0.65636 0.182322,-0.29171 0.413263,-0.49226 0.237019,-0.20056 0.522656,-0.30387 0.291716,-0.1094 0.644205,-0.1094 0.188399,0 0.370721,0.0365 0.182322,0.0304 0.322102,0.11547 l -0.04862,0.40111 q -0.03039,0.0972 -0.11547,0.0972 -0.07293,0 -0.224864,-0.0425 -0.145858,-0.0425 -0.388954,-0.0425 -0.352489,0 -0.625972,0.10939 -0.273483,0.1094 -0.486192,0.32211 -0.212709,0.20663 -0.376799,0.52265 -0.158012,0.30995 -0.291715,0.71714 v 3.91384 z"
         style="font-weight:300;font-family:Lato;-inkscape-font-specification:'Lato Light'"
         id="path1466" />
      <path
         d="m 93.16555,233.26364 q -0.182322,0 -0.224864,-0.17017 l -0.08508,-0.77183 q -0.249174,0.2431 -0.498347,0.43758 -0.243096,0.19447 -0.510502,0.32818 -0.267405,0.1337 -0.577353,0.20055 -0.309947,0.0729 -0.680668,0.0729 -0.309948,0 -0.601663,-0.0912 -0.291715,-0.0912 -0.522656,-0.27956 -0.224864,-0.1884 -0.364644,-0.48012 -0.133703,-0.29779 -0.133703,-0.71105 0,-0.38288 0.218786,-0.71106 0.218787,-0.32818 0.686746,-0.57127 0.46796,-0.2431 1.197248,-0.38896 0.735366,-0.14585 1.762446,-0.17016 v -0.63205 q 0,-0.83869 -0.364644,-1.28841 -0.358566,-0.45581 -1.069622,-0.45581 -0.437573,0 -0.74752,0.12155 -0.30387,0.12155 -0.516579,0.26741 -0.212709,0.14585 -0.346412,0.2674 -0.133703,0.12155 -0.224864,0.12155 -0.06685,0 -0.109393,-0.0304 -0.04254,-0.0304 -0.07293,-0.079 l -0.103316,-0.17625 q 0.474037,-0.47404 0.996694,-0.71713 0.522656,-0.2431 1.185093,-0.2431 0.486192,0 0.850836,0.15801 0.364644,0.15194 0.601662,0.44365 0.243096,0.28564 0.364644,0.69891 0.121548,0.40718 0.121548,0.91161 v 3.93815 z m -2.43096,-0.3221 q 0.352489,0 0.644205,-0.0729 0.297792,-0.079 0.546966,-0.21271 0.25525,-0.13978 0.474037,-0.32818 0.218786,-0.1884 0.431495,-0.40718 v -1.57405 q -0.862991,0.0243 -1.488963,0.1337 -0.625972,0.10332 -1.033158,0.28564 -0.401108,0.18232 -0.595585,0.43757 -0.188399,0.24918 -0.188399,0.57128 0,0.30387 0.09724,0.52873 0.103316,0.21879 0.267406,0.36465 0.170167,0.13978 0.388953,0.20663 0.218787,0.0669 0.455805,0.0669 z"
         style="font-weight:300;font-family:Lato;-inkscape-font-specification:'Lato Light'"
         id="path1468" />
      <path
         d="m 98.653433,227.96415 q -0.04862,0.0851 -0.13978,0.0851 -0.06685,0 -0.170168,-0.0729 -0.103315,-0.079 -0.27956,-0.17016 -0.170167,-0.0972 -0.425418,-0.17017 -0.255251,-0.079 -0.619895,-0.079 -0.328179,0 -0.601662,0.0972 -0.267406,0.0912 -0.461883,0.24917 -0.188399,0.15802 -0.291715,0.37073 -0.103316,0.20663 -0.103316,0.43757 0,0.28564 0.145858,0.47404 0.145857,0.1884 0.376799,0.3221 0.237018,0.1337 0.540888,0.23094 0.30387,0.0972 0.613818,0.19448 0.316024,0.0972 0.619894,0.21878 0.30387,0.11547 0.534812,0.29172 0.237018,0.17624 0.382876,0.43149 0.145857,0.25525 0.145857,0.6199 0,0.39503 -0.13978,0.73536 -0.13978,0.34034 -0.413263,0.58951 -0.267406,0.24917 -0.662437,0.39503 -0.395031,0.14586 -0.905532,0.14586 -0.638127,0 -1.10001,-0.20055 -0.461882,-0.20664 -0.826526,-0.53482 l 0.133703,-0.20663 q 0.03039,-0.0486 0.06685,-0.0729 0.04254,-0.0243 0.109393,-0.0243 0.07901,0 0.1884,0.0972 0.11547,0.0972 0.30387,0.21271 0.188399,0.10939 0.461882,0.20663 0.279561,0.0972 0.686746,0.0972 0.382877,0 0.674592,-0.10331 0.291715,-0.1094 0.486192,-0.29172 0.194477,-0.18232 0.291715,-0.42542 0.103316,-0.24917 0.103316,-0.52265 0,-0.30387 -0.145858,-0.50443 -0.145857,-0.20055 -0.382876,-0.34033 -0.237019,-0.13978 -0.540889,-0.23702 -0.297792,-0.0972 -0.613817,-0.19448 -0.316025,-0.0972 -0.619895,-0.21271 -0.297792,-0.11547 -0.534811,-0.29171 -0.237019,-0.17625 -0.382876,-0.42542 -0.145858,-0.25525 -0.145858,-0.63205 0,-0.3221 0.13978,-0.61989 0.139781,-0.2978 0.395031,-0.52266 0.261329,-0.22486 0.63205,-0.35857 0.370721,-0.1337 0.832604,-0.1337 0.553043,0 0.978461,0.15801 0.431496,0.15801 0.783985,0.48619 z"
         style="font-weight:300;font-family:Lato;-inkscape-font-specification:'Lato Light'"
         id="path1470" />
      <path
         d="m 101.13908,227.21663 v 6.04701 h -0.57735 v -6.04701 z m 0.24917,-2.08455 q 0,0.10939 -0.0486,0.20663 -0.0425,0.0912 -0.11547,0.16409 -0.0729,0.0729 -0.17016,0.11547 -0.0972,0.0425 -0.20663,0.0425 -0.1094,0 -0.20664,-0.0425 -0.0972,-0.0425 -0.17016,-0.11547 -0.0729,-0.0729 -0.11547,-0.16409 -0.0425,-0.0972 -0.0425,-0.20663 0,-0.10939 0.0425,-0.20663 0.0425,-0.10332 0.11547,-0.17625 0.0729,-0.0729 0.17016,-0.11547 0.0972,-0.0425 0.20664,-0.0425 0.10939,0 0.20663,0.0425 0.0972,0.0425 0.17016,0.11547 0.0729,0.0729 0.11547,0.17625 0.0486,0.0972 0.0486,0.20663 z"
         style="font-weight:300;font-family:Lato;-inkscape-font-specification:'Lato Light'"
         id="path1472" />
      <path
         d="m 103.83744,224.42102 v 8.84262 h -0.58343 v -8.84262 z"
         style="font-weight:300;font-family:Lato;-inkscape-font-specification:'Lato Light'"
         id="path1474" />
    </g>
    <path
       d="m 16.08698,214.77156 q 0,1.58265 -0.385689,2.79293 -0.385688,1.21026 -1.117166,2.03484 -0.73148,0.82457 -1.768849,1.25015 -1.037369,0.41229 -2.340731,0.41229 -0.5984808,0 -1.2102626,-0.0932 -0.6117818,-0.093 -1.263464,-0.29258 0.013385,-0.1862 0.026598,-0.37239 0.026598,-0.1862 0.053196,-0.37238 0.026598,-0.11961 0.093093,-0.21281 0.079794,-0.093 0.2659922,-0.093 0.119691,0 0.2792911,0.0532 0.1728957,0.04 0.3989891,0.0932 0.2260934,0.0532 0.5319843,0.10639 0.3058909,0.0398 0.7048779,0.0398 1.010771,0 1.822046,-0.31919 0.811277,-0.31919 1.38316,-0.97086 0.571883,-0.66499 0.864474,-1.66246 0.305891,-1.01076 0.305891,-2.36733 v -12.56813 h 1.35656 z"
       style="font-weight:300;font-size:15.5007px;line-height:1.25;font-family:Lato;-inkscape-font-specification:'Lato Light';stroke-width:0.66498"
       id="path941" />
    <path
       d="m 21.632892,207.81587 v 8.45855 q 0,1.86195 0.851174,2.92592 0.851176,1.05067 2.593425,1.05067 1.29006,0 2.407229,-0.65168 1.117166,-0.66499 2.008241,-1.83535 v -9.94811 h 1.276761 v 13.23312 h -0.704878 q -0.332491,0 -0.385689,-0.34579 l -0.119691,-1.96834 q -0.917672,1.14376 -2.127937,1.83533 -1.196964,0.69158 -2.673221,0.69158 -1.103867,0 -1.928443,-0.34579 -0.824575,-0.34579 -1.36986,-0.99746 -0.545283,-0.65169 -0.824574,-1.56935 -0.279293,-0.91768 -0.279293,-2.07475 v -8.45855 z"
       style="font-weight:300;font-size:15.5007px;line-height:1.25;font-family:Lato;-inkscape-font-specification:'Lato Light';stroke-width:0.66498"
       id="path943" />
    <path
       d="m 36.515138,201.69806 v 19.35093 h -1.276761 v -19.35093 z"
       style="font-weight:300;font-size:15.5007px;line-height:1.25;font-family:Lato;-inkscape-font-specification:'Lato Light';stroke-width:0.66498"
       id="path945" />
    <path
       d="m 42.406834,207.81587 v 13.23312 h -1.263463 v -13.23312 z m 0.545283,-4.56176 q 0,0.2394 -0.106392,0.45218 -0.09309,0.1995 -0.252691,0.35909 -0.159589,0.15959 -0.37239,0.2527 -0.212794,0.093 -0.452187,0.093 -0.239392,0 -0.452186,-0.093 -0.212795,-0.093 -0.37239,-0.2527 -0.159588,-0.15959 -0.252691,-0.35909 -0.09309,-0.21278 -0.09309,-0.45218 0,-0.2394 0.09309,-0.45218 0.09309,-0.22611 0.252691,-0.38569 0.159588,-0.15959 0.37239,-0.2527 0.212794,-0.093 0.452186,-0.093 0.239393,0 0.452187,0.093 0.212793,0.093 0.37239,0.2527 0.159588,0.15958 0.252691,0.38569 0.106392,0.21278 0.106392,0.45218 z"
       style="font-weight:300;font-size:15.5007px;line-height:1.25;font-family:Lato;-inkscape-font-specification:'Lato Light';stroke-width:0.66498"
       id="path947" />
    <path
       d="m 55.054758,221.04899 q -0.39899,0 -0.492086,-0.37239 l -0.186195,-1.68906 q -0.545283,0.53199 -1.090568,0.95758 -0.531984,0.42558 -1.117166,0.71818 -0.585182,0.29259 -1.263463,0.43888 -0.67828,0.15959 -1.489555,0.15959 -0.678281,0 -1.316662,-0.1995 -0.638382,-0.19949 -1.143766,-0.61177 -0.492086,-0.41229 -0.797977,-1.05068 -0.292592,-0.65168 -0.292592,-1.55605 0,-0.83787 0.478787,-1.55605 0.478785,-0.71818 1.502855,-1.25018 1.02407,-0.53197 2.620022,-0.85117 1.609254,-0.31919 3.856888,-0.37239 v -1.38314 q 0,-1.83535 -0.797977,-2.81953 -0.784677,-0.99746 -2.340732,-0.99746 -0.957571,0 -1.635851,0.26598 -0.66498,0.266 -1.130467,0.58519 -0.465486,0.31919 -0.758078,0.58517 -0.29259,0.266 -0.492086,0.266 -0.146289,0 -0.239392,-0.0664 -0.09309,-0.0664 -0.159588,-0.17289 l -0.226094,-0.38568 q 1.037369,-1.03738 2.181135,-1.56937 1.143767,-0.53198 2.593425,-0.53198 1.063969,0 1.861945,0.34579 0.797977,0.33249 1.31666,0.97088 0.531985,0.62507 0.797977,1.52945 0.265992,0.89107 0.265992,1.99494 v 8.61814 z m -5.319844,-0.70488 q 0.771377,0 1.409759,-0.15959 0.65168,-0.17289 1.196965,-0.46549 0.558583,-0.30589 1.037369,-0.71818 0.478785,-0.41228 0.944273,-0.89106 v -3.44462 q -1.888545,0.0532 -3.258405,0.2926 -1.369859,0.22608 -2.260934,0.62507 -0.877774,0.39898 -1.303361,0.95758 -0.412288,0.54527 -0.412288,1.25016 0,0.66498 0.212794,1.15706 0.226094,0.47878 0.585182,0.79798 0.37239,0.30589 0.851176,0.4522 0.478785,0.14637 0.99747,0.14637 z"
       style="font-weight:300;font-size:15.5007px;line-height:1.25;font-family:Lato;-inkscape-font-specification:'Lato Light';stroke-width:0.66498"
       id="path949" />
    <path
       d="m 76.001598,211.63286 q 0,2.18114 -0.65168,3.92338 -0.651681,1.74226 -1.835347,2.96582 -1.183665,1.22356 -2.846115,1.87524 -1.649152,0.65169 -3.644093,0.65169 h -6.875897 v -18.81896 h 6.875897 q 1.994941,0 3.644093,0.65169 1.66245,0.65168 2.846115,1.87525 1.183666,1.22356 1.835347,2.96581 0.65168,1.74224 0.65168,3.91008 z m -1.409758,0 q 0,-1.96834 -0.545285,-3.51109 -0.545283,-1.54276 -1.542754,-2.60673 -0.99747,-1.06397 -2.393929,-1.62254 -1.396459,-0.5586 -3.085509,-0.5586 h -5.506037 v 16.61122 h 5.506037 q 1.68905,0 3.085509,-0.55859 1.396459,-0.55858 2.393929,-1.62255 0.997471,-1.06397 1.542754,-2.60673 0.545285,-1.54275 0.545285,-3.52439 z"
       style="font-weight:300;font-size:15.5007px;line-height:1.25;font-family:Lato;-inkscape-font-specification:'Lato Light';stroke-width:0.66498"
       id="path951" />
    <path
       d="m 84.739358,207.60307 q 1.117168,0 2.074731,0.38569 0.95758,0.38569 1.662462,1.13047 0.704882,0.73148 1.103869,1.80875 0.412286,1.07727 0.412286,2.47373 0,0.29258 -0.07979,0.39899 -0.07979,0.10639 -0.265997,0.10639 h -9.628927 v 0.25268 q 0,1.48956 0.345791,2.62003 0.345791,1.13047 0.984178,1.90184 0.638387,0.75808 1.542754,1.14377 0.904366,0.38569 2.021534,0.38569 0.997477,0 1.728957,-0.21279 0.73148,-0.2261 1.22356,-0.49209 0.50538,-0.27928 0.797975,-0.49208 0.292595,-0.22609 0.425585,-0.22609 0.172905,0 0.265998,0.13299 l 0.345791,0.42559 q -0.319193,0.39899 -0.851171,0.74478 -0.518695,0.34579 -1.170364,0.59847 -0.638386,0.2394 -1.383165,0.38569 -0.73148,0.14637 -1.476259,0.14637 -1.356567,0 -2.473718,-0.46548 -1.117168,-0.47878 -1.91516,-1.38317 -0.797975,-0.90436 -1.236856,-2.20772 -0.425588,-1.31667 -0.425588,-3.00571 0,-1.42306 0.398989,-2.62002 0.412284,-1.21026 1.170362,-2.07475 0.771377,-0.87777 1.875246,-1.36985 1.117168,-0.4921 2.526931,-0.4921 z m 0.01373,0.94428 q -1.024075,0 -1.835348,0.3192 -0.811274,0.31919 -1.409764,0.91766 -0.585173,0.59849 -0.957563,1.43636 -0.35909,0.83788 -0.478781,1.87525 h 8.777739 q 0,-1.06397 -0.305894,-1.90184 -0.292595,-0.85117 -0.837872,-1.43637 -0.545293,-0.58517 -1.303371,-0.89106 -0.744779,-0.3192 -1.649146,-0.3192 z"
       style="font-weight:300;font-size:15.5007px;line-height:1.25;font-family:Lato;-inkscape-font-specification:'Lato Light';stroke-width:0.66498"
       id="path953" />
    <path
       d="m 98.251716,221.04899 h -1.117168 l -5.585841,-13.23312 h 0.997477 q 0.186204,0 0.305895,0.1064 0.119605,0.093 0.159588,0.21278 l 4.375562,10.4402 q 0.199502,0.57188 0.319193,1.14377 0.119777,-0.57189 0.332493,-1.14377 l 4.388875,-10.4402 q 0.0664,-0.14637 0.17289,-0.22608 0.11961,-0.093 0.2793,-0.093 h 0.95756 z"
       style="font-weight:300;font-size:15.5007px;line-height:1.25;font-family:Lato;-inkscape-font-specification:'Lato Light';stroke-width:0.66498"
       id="path955" />
    <path
       id="path54997-2-9-7-9-8-7"
       style="fill:#4d64ae;fill-opacity:1;stroke-width:5.57689;stroke-linecap:round;stroke-linejoin:round;stroke-miterlimit:4;stroke-dasharray:none;stroke-dashoffset:19.5402;paint-order:markers stroke fill"
       d="m 124.07231,205.82125 a 6.4765882,6.4765882 0 0 0 -4.09621,3.32528 l 11.92932,4.93974 a 6.4765882,6.4765882 0 0 0 0.0991,-3.68537 6.4765882,6.4765882 0 0 0 -7.93219,-4.57965 z m -4.47497,4.2298 a 6.4765882,6.4765882 0 0 0 -0.10469,3.70239 6.4765882,6.4765882 0 0 0 7.93219,4.57965 6.4765882,6.4765882 0 0 0 4.10444,-3.34248 z" />
    <path
       d="m 106.68364,211.84566 9.97471,-5.12035 v 0.86447 q 0,0.14629 -0.0798,0.2527 -0.0798,0.10639 -0.27929,0.21279 l -7.35468,3.72389 q -0.43889,0.22609 -0.94427,0.34579 0.26599,0.0665 0.49208,0.14629 0.23939,0.0798 0.45219,0.18619 l 7.35468,3.73719 q 0.19949,0.0931 0.27929,0.2128 0.0798,0.10639 0.0798,0.25269 v 0.86447 l -9.97471,-5.13364 z"
       style="font-weight:300;font-size:15.5007px;line-height:1.25;font-family:Lato;-inkscape-font-specification:'Lato Light';stroke-width:0.66498;fill:#ffae00;fill-opacity:1"
       id="path957" />
    <path
       d="m 134.49311,217.52459 v -0.86447 q 0,-0.14629 0.0798,-0.2527 0.0798,-0.11969 0.26599,-0.21279 l 7.36798,-3.73719 q 0.41229,-0.21279 0.94427,-0.33249 -0.26599,-0.0665 -0.50538,-0.14629 -0.2261,-0.0798 -0.43889,-0.19949 l -7.36798,-3.72389 q -0.34579,-0.1862 -0.34579,-0.46549 v -0.86447 l 9.9747,5.12034 v 0.54529 z"
       style="font-weight:300;font-size:15.5007px;line-height:1.25;font-family:Lato;-inkscape-font-specification:'Lato Light';stroke-width:0.66498;fill:#ffae00;fill-opacity:1"
       id="path961" />
    <g
       id="g939"
       transform="matrix(1.7160009,0,0,1.7160009,-17.577595,127.88433)">
      <circle
         style="fill:#9259a3;fill-opacity:1;stroke-width:2.25515;stroke-linecap:round;stroke-linejoin:round;stroke-miterlimit:4;stroke-dasharray:none;stroke-dashoffset:19.5402;paint-order:markers stroke fill"
         id="path54997-7-2-2-6-2-8-6"
         cx="89.817314"
         cy="58.861633"
         r="2.6189606" />
      <circle
         style="fill:#ca3c32;fill-opacity:1;stroke-width:2.25515;stroke-linecap:round;stroke-linejoin:round;stroke-miterlimit:4;stroke-dasharray:none;stroke-dashoffset:19.5402;paint-order:markers stroke fill"
         id="path54997-7-5-8-8-89-2-4-1"
         cx="77.027962"
         cy="58.861633"
         r="2.6189606" />
      <circle
         style="fill:#399746;fill-opacity:1;stroke-width:2.25515;stroke-linecap:round;stroke-linejoin:round;stroke-miterlimit:4;stroke-dasharray:none;stroke-dashoffset:19.5402;paint-order:markers stroke fill"
         id="path54997-7-5-8-8-8-0-3-3-0"
         cx="83.4226"
         cy="58.861633"
         r="2.6189606" />
    </g>
    <g
       aria-label="/"
       transform="matrix(0.99318006,0,0,1.0068668,-42.467407,-38.104184)"
       id="text980-43-8-6-5-94"
       style="font-size:9.61626px;line-height:1.25;font-family:'CMU Classical Serif';-inkscape-font-specification:'CMU Classical Serif';fill:#ca3c32;fill-opacity:1;stroke:#ca3c32;stroke-width:0.24;stroke-miterlimit:4;stroke-dasharray:none;stroke-opacity:1" />
  </g>
</svg>
